<?xml version="1.0" encoding="UTF-8" standalone="no"?>
<!-- Generator: Adobe Illustrator 25.4.3, SVG Export Plug-In . SVG Version: 6.00 Build 0)  -->

<svg
   version="1.1"
   x="0px"
   y="0px"
   viewBox="0 0 569.5 146.3"
   xml:space="preserve"
   id="svg404"
   sodipodi:docname="211125 SANOFI LOGO RGB.svg"
   width="569.5"
   height="146.3"
   inkscape:version="1.1.1 (c3084ef, 2021-09-22)"
   xmlns:inkscape="http://www.inkscape.org/namespaces/inkscape"
   xmlns:sodipodi="http://sodipodi.sourceforge.net/DTD/sodipodi-0.dtd"
   xmlns="http://www.w3.org/2000/svg"
   xmlns:svg="http://www.w3.org/2000/svg"><defs
   id="defs408" /><sodipodi:namedview
   id="namedview406"
   pagecolor="#ffffff"
   bordercolor="#666666"
   borderopacity="1.0"
   inkscape:pageshadow="2"
   inkscape:pageopacity="0.0"
   inkscape:pagecheckerboard="0"
   showgrid="false"
   viewbox-width="733.83"
   viewbox-height="270"
   fit-margin-top="0"
   fit-margin-left="0"
   fit-margin-right="0"
   fit-margin-bottom="0"
   inkscape:zoom="1.5100009"
   inkscape:cx="284.76804"
   inkscape:cy="72.847639"
   inkscape:window-width="2122"
   inkscape:window-height="1142"
   inkscape:window-x="260"
   inkscape:window-y="101"
   inkscape:window-maximized="0"
   inkscape:current-layer="svg404" />
<style
   type="text/css"
   id="style9">
	.st0{fill:#7A00E6;}
	.st1{display:none;}
	.st2{display:inline;}
	.st3{fill:none;stroke:#0000FF;stroke-width:0.2835;stroke-miterlimit:10;}
	.st4{fill:none;stroke:#0000FF;stroke-width:0.2835;stroke-miterlimit:10;stroke-dasharray:5.4826,5.4826,5.4826,5.4826;}
	
		.st5{fill:none;stroke:#0000FF;stroke-width:0.2835;stroke-miterlimit:10;stroke-dasharray:5.4826,5.4826,5.4826,5.4826,5.4826,5.4826;}
	.st6{fill:none;stroke:#0000FF;stroke-width:0.2835;stroke-miterlimit:10;stroke-dasharray:5.6917,5.6917,5.6917,5.6917;}
	
		.st7{fill:none;stroke:#0000FF;stroke-width:0.2835;stroke-miterlimit:10;stroke-dasharray:5.6917,5.6917,5.6917,5.6917,5.6917,5.6917;}
	.st8{fill:none;stroke:#0000FF;stroke-width:0.2835;stroke-miterlimit:10;stroke-dasharray:6.1123,6.1123,6.1123,6.1123;}
	
		.st9{fill:none;stroke:#0000FF;stroke-width:0.2835;stroke-miterlimit:10;stroke-dasharray:6.1123,6.1123,6.1123,6.1123,6.1123,6.1123;}
	.st10{fill:none;stroke:#0000FF;stroke-width:0.2835;stroke-miterlimit:10;stroke-dasharray:5.5821,5.5821,5.5821,5.5821;}
	
		.st11{fill:none;stroke:#0000FF;stroke-width:0.2835;stroke-miterlimit:10;stroke-dasharray:5.5821,5.5821,5.5821,5.5821,5.5821,5.5821;}
	
		.st12{fill:none;stroke:#0000FF;stroke-width:0.2835;stroke-miterlimit:10;stroke-dasharray:5.6282,5.6282,5.6282,5.6282,5.6282,5.6282;}
	
		.st13{fill:none;stroke:#0000FF;stroke-width:0.2835;stroke-miterlimit:10;stroke-dasharray:5.0664,5.0664,5.0664,5.0664,5.0664,5.0664;}
	.st14{fill:none;stroke:#0A1E31;stroke-width:0.1766;stroke-miterlimit:10;}
	.st15{fill:#0A1E31;}
	.st16{display:inline;fill:#FF0000;}
	.st17{display:inline;fill:#00FF00;}
	.st18{display:inline;fill:#0000FF;}
</style>
<g
   id="Sanofi_RGB"
   transform="translate(-107.97,-107.79)">
	<g
   id="g29">
		<g
   id="g27">
			<path
   d="m 310.2,154.56 c -13.6,-5.15 -26.37,-7.62 -40.59,-7.62 -31.11,0 -52.95,20.81 -52.95,53.57 0,33.17 18.96,53.57 52.54,53.57 13.6,0 26.79,-2.27 41,-8.24 3.3,-1.44 5.15,-3.71 5.15,-8.24 v -74.8 c 0,-4.74 -1.86,-7 -5.15,-8.24 z m -21.64,67.38 c 0,3.09 -1.65,4.53 -5.15,5.56 -4.53,1.24 -8.45,1.85 -14.01,1.85 -13.19,0 -25.55,-7.83 -25.55,-28.85 0,-21.02 12.36,-28.85 25.55,-28.85 5.56,0 9.48,0.62 14.01,1.85 3.5,1.03 5.15,2.47 5.15,5.56 z"
   id="path11" />
			<path
   d="m 136.71,181.35 c 0,-6.31 6.39,-10.3 17.31,-10.3 10.51,0 20.6,3.5 31.11,9.27 1.03,0.62 2.06,0.82 3.09,0.82 1.85,0 3.62,-1.18 4.53,-2.88 l 6.39,-13.6 c 0.59,-1.27 0.82,-2.47 0.82,-3.5 0,-1.65 -0.86,-3.18 -2.47,-4.12 -12.77,-7.42 -28.02,-10.92 -42.65,-10.92 -27.61,0 -45.33,14.84 -45.33,37.09 0,43.68 66.35,26.77 66.35,57.07 0,3.09 -0.41,4.94 -1.24,7.62 -0.12,0.4 -0.21,0.82 -0.21,1.24 0,1.65 1.03,2.88 3.09,2.88 h 18.54 c 3.09,0 4.33,-1.03 5.36,-4.12 1.24,-3.5 1.65,-8.24 1.65,-11.74 0,-46.78 -66.34,-35.52 -66.34,-54.81 z"
   id="path13" />
			<path
   d="m 387.05,146.94 c -12.16,0 -26.37,2.06 -41.41,7.42 -2.88,1.03 -5.15,3.5 -5.15,8.24 v 85.3 c 0,2.47 1.65,4.12 4.12,4.12 h 18.54 c 2.47,0 4.12,-1.65 4.12,-4.12 v -69.23 c 0,-3.09 1.65,-4.53 4.95,-5.36 5.36,-1.24 8.86,-1.65 15.25,-1.65 11.13,0 19.99,5.15 19.99,17.51 v 58.72 c 0,2.47 1.65,4.12 4.12,4.12 h 18.54 c 2.47,0 4.12,-1.65 4.12,-4.12 v -62.22 c -0.01,-25.13 -15.46,-38.73 -47.19,-38.73 z"
   id="path15" />
			<path
   d="m 505.11,146.94 c -30.91,0 -51.1,22.46 -51.1,53.57 0,31.11 20.19,53.57 52.54,53.57 30.91,0 51.1,-22.46 51.1,-53.57 0,-31.11 -20.19,-53.57 -52.54,-53.57 z m 1.45,82.41 c -15.25,0 -25.34,-9.89 -25.34,-28.85 0,-18.96 10.1,-28.85 23.9,-28.85 15.25,0 25.34,9.89 25.34,28.85 0,18.96 -10.1,28.85 -23.9,28.85 z"
   id="path17" />
			<path
   d="m 672.42,149 h -18.54 c -2.47,0 -4.12,1.65 -4.12,4.12 v 94.78 c 0,2.47 1.65,4.12 4.12,4.12 h 18.54 c 2.47,0 4.12,-1.65 4.12,-4.12 v -94.78 c 0,-2.47 -1.65,-4.12 -4.12,-4.12 z"
   id="path19" />
			<path
   d="m 632.86,109.23 c -4.12,-1.03 -8.59,-1.44 -12.98,-1.44 -25.55,0 -42.24,13.6 -42.24,43.27 v 96.84 c 0,2.47 1.65,4.12 4.12,4.12 h 18.34 c 2.47,0 4.12,-1.65 4.12,-4.12 v -76.24 h 26.17 c 2.68,0 4.12,-1.65 4.12,-4.12 v -14.22 c 0,-2.68 -1.44,-4.33 -4.12,-4.33 h -26.17 v -2.27 c 0,-11.33 4.94,-17.1 16.28,-17.1 4.12,0 8.56,1.03 10.1,1.03 2.47,0 3.5,-1.44 3.91,-3.91 l 2.06,-10.71 c 0.18,-0.95 0.41,-1.79 0.41,-2.68 0,-2.29 -1.24,-3.5 -4.12,-4.12 z"
   id="path21" />
			<path
   class="st0"
   d="m 121.98,225.65 c -8.45,0 -14.01,5.36 -14.01,14.22 0,8.65 5.56,14.22 14.63,14.22 8.45,0 14.01,-5.56 14.01,-14.22 0,-8.87 -5.57,-14.22 -14.63,-14.22 z"
   id="path23" />
			<path
   class="st0"
   d="m 662.84,107.83 c -8.45,0 -14.01,5.36 -14.01,14.22 0,8.65 5.56,14.22 14.63,14.22 8.45,0 14.01,-5.56 14.01,-14.22 0,-8.87 -5.57,-14.22 -14.63,-14.22 z"
   id="path25" />
		</g>
	</g>
</g>
<g
   id="Protection_zone"
   class="st1"
   transform="translate(-107.97,-107.79)">
	<g
   class="st2"
   id="g132">
		<g
   id="g60">
			<g
   id="g58">
				<g
   id="g56">
					<polyline
   class="st3"
   points="782.6,0 785.43,0 785.43,2.83      "
   id="polyline32" />
					<line
   class="st4"
   x1="785.42999"
   y1="8.3199997"
   x2="785.42999"
   y2="27.51"
   id="line34" />
					<line
   class="st5"
   x1="785.42999"
   y1="30.25"
   x2="785.42999"
   y2="356.45999"
   id="line36" />
					<polyline
   class="st3"
   points="785.43,359.21 785.43,362.04 782.6,362.04      "
   id="polyline38" />
					<line
   class="st6"
   x1="776.90997"
   y1="362.04001"
   x2="756.98999"
   y2="362.04001"
   id="line40" />
					<line
   class="st7"
   x1="754.14001"
   y1="362.04001"
   x2="5.6799998"
   y2="362.04001"
   id="line42" />
					<polyline
   class="st3"
   points="2.83,362.04 0,362.04 0,359.21      "
   id="polyline44" />
					<line
   class="st4"
   x1="0"
   y1="353.72"
   x2="0"
   y2="334.53"
   id="line46" />
					<line
   class="st5"
   x1="0"
   y1="331.79001"
   x2="0"
   y2="5.5799999"
   id="line48" />
					<polyline
   class="st3"
   points="0,2.83 0,0 2.83,0      "
   id="polyline50" />
					<line
   class="st6"
   x1="8.5299997"
   y1="0"
   x2="28.450001"
   y2="0"
   id="line52" />
					<line
   class="st7"
   x1="31.290001"
   y1="0"
   x2="779.75"
   y2="0"
   id="line54" />
				</g>
			</g>
		</g>
		<g
   id="g90">
			<g
   id="g88">
				<g
   id="g86">
					<polyline
   class="st3"
   points="674.63,107.83 677.47,107.83 677.47,110.66      "
   id="polyline62" />
					<line
   class="st8"
   x1="677.46997"
   y1="116.77"
   x2="677.46997"
   y2="138.17"
   id="line64" />
					<line
   class="st9"
   x1="677.46997"
   y1="141.22"
   x2="677.46997"
   y2="248.19"
   id="line66" />
					<polyline
   class="st3"
   points="677.47,251.25 677.47,254.08 674.63,254.08      "
   id="polyline68" />
					<line
   class="st10"
   x1="669.04999"
   y1="254.08"
   x2="649.51001"
   y2="254.08"
   id="line70" />
					<line
   class="st11"
   x1="646.71997"
   y1="254.08"
   x2="113.64"
   y2="254.08"
   id="line72" />
					<polyline
   class="st3"
   points="110.85,254.08 108.01,254.08 108.01,251.25      "
   id="polyline74" />
					<line
   class="st8"
   x1="108.01"
   y1="245.13"
   x2="108.01"
   y2="223.74001"
   id="line76" />
					<line
   class="st9"
   x1="108.01"
   y1="220.67999"
   x2="108.01"
   y2="113.72"
   id="line78" />
					<polyline
   class="st3"
   points="108.01,110.66 108.01,107.83 110.85,107.83      "
   id="polyline80" />
					<line
   class="st10"
   x1="116.43"
   y1="107.83"
   x2="135.96001"
   y2="107.83"
   id="line82" />
					<line
   class="st11"
   x1="138.75999"
   y1="107.83"
   x2="671.84003"
   y2="107.83"
   id="line84" />
				</g>
			</g>
		</g>
		<g
   id="g100">
			<g
   id="g94">
				<path
   class="st12"
   d="m 35.23,199.99 c -6.31,0 -10.3,-6.39 -10.3,-17.31 0,-10.51 3.5,-20.6 9.27,-31.11 0.62,-1.03 0.82,-2.06 0.82,-3.09 0,-1.85 -1.18,-3.62 -2.88,-4.53 l -13.6,-6.39 c -1.27,-0.59 -2.47,-0.82 -3.5,-0.82 -1.65,0 -3.18,0.86 -4.12,2.47 C 3.5,151.99 0,167.23 0,181.86 c 0,27.61 14.84,45.33 37.09,45.33 43.68,0 26.77,-66.35 57.07,-66.35 3.09,0 4.94,0.41 7.62,1.24 0.4,0.12 0.82,0.21 1.24,0.21 1.65,0 2.88,-1.03 2.88,-3.09 v -18.54 c 0,-3.09 -1.03,-4.33 -4.12,-5.36 -3.5,-1.24 -8.24,-1.65 -11.74,-1.65 -46.77,0 -35.51,66.34 -54.81,66.34 z"
   id="path92" />
			</g>
			<g
   id="g98">
				<path
   class="st13"
   d="m 79.53,214.73 c 0,8.45 5.36,14.01 14.22,14.01 8.65,0 14.22,-5.56 14.22,-14.63 0,-8.45 -5.56,-14.01 -14.22,-14.01 -8.86,0 -14.22,5.56 -14.22,14.63 z"
   id="path96" />
			</g>
		</g>
		<g
   id="g110">
			<g
   id="g104">
				<path
   class="st12"
   d="m 750.2,162.39 c 6.31,0 10.3,6.39 10.3,17.31 0,10.51 -3.5,20.6 -9.27,31.11 -0.62,1.03 -0.82,2.06 -0.82,3.09 0,1.85 1.18,3.62 2.88,4.53 l 13.6,6.39 c 1.27,0.59 2.47,0.82 3.5,0.82 1.65,0 3.18,-0.86 4.12,-2.47 7.42,-12.77 10.92,-28.02 10.92,-42.65 0,-27.61 -14.84,-45.33 -37.09,-45.33 -43.68,0 -26.77,66.35 -57.07,66.35 -3.09,0 -4.94,-0.41 -7.62,-1.24 -0.4,-0.12 -0.82,-0.21 -1.24,-0.21 -1.65,0 -2.88,1.03 -2.88,3.09 v 18.54 c 0,3.09 1.03,4.33 4.12,5.36 3.5,1.24 8.24,1.65 11.74,1.65 46.78,0.01 35.52,-66.34 54.81,-66.34 z"
   id="path102" />
			</g>
			<g
   id="g108">
				<path
   class="st13"
   d="m 705.9,147.66 c 0,-8.45 -5.36,-14.01 -14.22,-14.01 -8.65,0 -14.22,5.56 -14.22,14.63 0,8.45 5.56,14.01 14.22,14.01 8.87,0 14.22,-5.57 14.22,-14.63 z"
   id="path106" />
			</g>
		</g>
		<g
   id="g120">
			<g
   id="g114">
				<path
   class="st12"
   d="m 373.45,35.09 c 0,-6.31 6.39,-10.3 17.31,-10.3 10.51,0 20.6,3.5 31.11,9.27 1.03,0.62 2.06,0.82 3.09,0.82 1.85,0 3.62,-1.18 4.53,-2.88 l 6.39,-13.6 c 0.59,-1.27 0.82,-2.47 0.82,-3.5 0,-1.65 -0.86,-3.18 -2.47,-4.12 -12.77,-7.42 -28.02,-10.92 -42.65,-10.92 -27.61,0 -45.33,14.84 -45.33,37.09 0,43.68 66.35,26.77 66.35,57.07 0,3.09 -0.41,4.94 -1.24,7.62 -0.12,0.4 -0.21,0.82 -0.21,1.24 0,1.65 1.03,2.88 3.09,2.88 h 18.54 c 3.09,0 4.33,-1.03 5.36,-4.12 1.24,-3.5 1.65,-8.24 1.65,-11.74 0.01,-46.77 -66.34,-35.51 -66.34,-54.81 z"
   id="path112" />
			</g>
			<g
   id="g118">
				<path
   class="st13"
   d="m 358.72,79.39 c -8.45,0 -14.01,5.36 -14.01,14.22 0,8.65 5.56,14.22 14.63,14.22 8.45,0 14.01,-5.56 14.01,-14.22 0,-8.86 -5.56,-14.22 -14.63,-14.22 z"
   id="path116" />
			</g>
		</g>
		<g
   id="g130">
			<g
   id="g124">
				<path
   class="st12"
   d="m 411.06,326.81 c 0,6.31 -6.39,10.3 -17.31,10.3 -10.51,0 -20.6,-3.5 -31.11,-9.27 -1.03,-0.62 -2.06,-0.82 -3.09,-0.82 -1.85,0 -3.62,1.18 -4.53,2.88 l -6.39,13.6 c -0.59,1.27 -0.82,2.47 -0.82,3.5 0,1.65 0.86,3.18 2.47,4.12 12.77,7.42 28.02,10.92 42.65,10.92 27.61,0 45.33,-14.84 45.33,-37.09 0,-43.68 -66.35,-26.77 -66.35,-57.07 0,-3.09 0.41,-4.94 1.24,-7.62 0.12,-0.4 0.21,-0.82 0.21,-1.24 0,-1.65 -1.03,-2.88 -3.09,-2.88 h -18.54 c -3.09,0 -4.33,1.03 -5.36,4.12 -1.24,3.5 -1.65,8.24 -1.65,11.74 -0.01,46.78 66.34,35.52 66.34,54.81 z"
   id="path122" />
			</g>
			<g
   id="g128">
				<path
   class="st13"
   d="m 425.79,282.51 c 8.45,0 14.01,-5.36 14.01,-14.22 0,-8.65 -5.56,-14.22 -14.63,-14.22 -8.45,0 -14.01,5.56 -14.01,14.22 0,8.87 5.56,14.22 14.63,14.22 z"
   id="path126" />
			</g>
		</g>
	</g>
</g>
<g
   id="Info_FUB"
   class="st1"
   transform="translate(-107.97,-107.79)">
	
		<text
   transform="translate(408.3362,542.6354)"
   style="font-size:9.4173px;font-family:RelativePro-Book;display:inline;fill:#1a1a18"
   id="text135">R122 G0 B230</text>
	
		<text
   transform="translate(408.3362,564.5444)"
   style="font-size:9.4173px;font-family:RelativePro-Book;display:inline;fill:#1a1a18"
   id="text137">R0 G0 B0</text>
	<g
   class="st2"
   id="g143">
		<rect
   x="388.39001"
   y="532.78998"
   class="st0"
   width="12.92"
   height="12.92"
   id="rect139" />
		<rect
   x="388.39001"
   y="554.70001"
   width="12.92"
   height="12.92"
   id="rect141" />
	</g>
	<g
   class="st2"
   id="g393">
		<line
   class="st14"
   x1="611.48999"
   y1="618.90002"
   x2="611.48999"
   y2="662.17999"
   id="line145" />
		<line
   class="st14"
   x1="695.60999"
   y1="618.90002"
   x2="695.60999"
   y2="662.17999"
   id="line147" />
		<text
   transform="translate(531.4406,626.3367)"
   class="st15"
   style="font-size:7.6511px;font-family:RelativePro-Book"
   id="text149">Designer</text>
		<text
   transform="translate(616.8938,626.3367)"
   class="st15"
   style="font-size:7.6511px;font-family:RelativePro-Book"
   id="text151">Project Manager</text>
		<text
   transform="translate(701.0092,626.3367)"
   class="st15"
   style="font-size:7.6511px;font-family:RelativePro-Book"
   id="text153">Production Manager</text>
		<g
   id="g157">
			<rect
   x="521.78998"
   y="592.84003"
   class="st15"
   width="263.64001"
   height="20.17"
   id="rect155" />
		</g>
		<g
   id="g161">
			<path
   class="st15"
   d="m 785.25,593.01 v 79.38 H 521.97 v -79.38 h 263.28 m 0.18,-0.17 H 521.79 v 79.74 h 263.64 z"
   id="path159" />
		</g>
		<text
   transform="translate(607.1185,606.3574)"
   style="font-size:7.6511px;font-family:RelativePro-Book;fill:#ffffff"
   id="text163">VALIDATION // APPROVAL</text>
		<line
   class="st14"
   x1="44.259998"
   y1="464.89999"
   x2="44.259998"
   y2="576.75"
   id="line165" />
		<line
   class="st14"
   x1="175.58"
   y1="464.89999"
   x2="175.58"
   y2="576.75"
   id="line167" />
		<line
   class="st14"
   x1="356.85999"
   y1="490.79001"
   x2="356.85999"
   y2="576.75"
   id="line169" />
		<line
   class="st14"
   x1="630.31"
   y1="490.79001"
   x2="630.31"
   y2="576.75"
   id="line171" />
		<line
   class="st14"
   x1="160.39999"
   y1="520.82001"
   x2="55.619999"
   y2="520.82001"
   id="line173" />
		<rect
   x="0"
   y="592.84003"
   class="st15"
   width="521.78998"
   height="79.739998"
   id="rect175" />
		<text
   transform="translate(193.7335,574.2435)"
   id="text183"><tspan
     x="0"
     y="0"
     class="st15"
     style="font-size:9.4168px;font-family:RelativePro-Book"
     id="tspan177">Color profil </tspan><tspan
     x="52.02"
     y="0"
     class="st15"
     style="font-size:9.4168px;font-family:RelativePro-Book"
     id="tspan179">: </tspan><tspan
     x="56.540001"
     y="0"
     class="st15"
     style="font-size:9.4168px;font-family:RelativePro-Book"
     id="tspan181">sRGB IEC61966-2.1</tspan></text>
		<text
   transform="translate(193.7335,515.0175)"
   id="text189"><tspan
     x="0"
     y="0"
     class="st15"
     style="font-size:9.4168px;font-family:RelativePro-Book"
     id="tspan185">Dimensions </tspan><tspan
     x="52.02"
     y="0"
     class="st15"
     style="font-size:9.4168px;font-family:RelativePro-Book"
     id="tspan187">: -</tspan></text>
		<text
   transform="translate(193.7335,476.2366)"
   id="text195"><tspan
     x="0"
     y="0"
     class="st15"
     style="font-size:9.4168px;font-family:RelativePro-Book"
     id="tspan191">File Name </tspan><tspan
     x="44.549999"
     y="0"
     class="st15"
     style="font-size:9.4168px;font-family:RelativePro-Book"
     id="tspan193">: 211125_SANOFI_LOGO_RGB.ai</tspan></text>
		<text
   transform="translate(55.9673,574.2435)"
   class="st15"
   style="font-size:9.4168px;font-family:RelativePro-Book"
   id="text197">Artworker : CS/DC</text>
		<text
   transform="translate(55.9673,555.8296)"
   class="st15"
   style="font-size:9.4168px;font-family:RelativePro-Book"
   id="text199">Designer : MG</text>
		<text
   transform="translate(193.7335,534.4079)"
   id="text205"><tspan
     x="0"
     y="0"
     class="st15"
     style="font-size:9.4168px;font-family:RelativePro-Book"
     id="tspan201">Version no : </tspan><tspan
     x="53.02"
     y="0"
     class="st15"
     style="font-size:9.4168px;font-family:RelativePro-Bold"
     id="tspan203">2</tspan></text>
		<text
   transform="translate(55.9673,537.4167)"
   class="st15"
   style="font-size:9.4168px;font-family:RelativePro-Book"
   id="text207">Project Manager : JF</text>
		<text
   transform="translate(55.9668,513.0624)"
   class="st15"
   style="font-size:9.4168px;font-family:RelativePro-Book"
   id="text209">Date : 25/11/2021</text>
		<text
   transform="translate(193.734,495.6271)"
   class="st15"
   style="font-size:9.4168px;font-family:RelativePro-Book"
   id="text211">Printing process : -</text>
		<text
   transform="translate(373.8674,495.6271)"
   class="st15"
   style="font-size:9.4168px;font-family:RelativePro-Book"
   id="text213">Colors :</text>
		<rect
   x="17.059999"
   y="604.27002"
   style="fill:none"
   width="491.41"
   height="57.919998"
   id="rect215" />
		<text
   transform="translate(17.0136,610.8134)"
   id="text367"><tspan
     x="0"
     y="0"
     style="font-size:9.4168px;font-family:RelativePro-Bold;fill:#ffffff"
     id="tspan217">WARNING ! This is not an artwork file ready to print.</tspan><tspan
     x="0"
     y="15.3"
     style="font-size:8.2397px;font-family:RelativePro-Book;fill:#ffffff"
     id="tspan219">Spot</tspan><tspan
     x="18.23"
     y="15.3"
     style="font-size:8.2397px;font-family:RelativePro-Book;fill:#ffffff"
     id="tspan221"> </tspan><tspan
     x="19.98"
     y="15.3"
     style="font-size:8.2397px;font-family:RelativePro-Book;fill:#ffffff"
     id="tspan223">colors</tspan><tspan
     x="43.98"
     y="15.3"
     style="font-size:8.2397px;font-family:RelativePro-Book;fill:#ffffff"
     id="tspan225"> </tspan><tspan
     x="45.720001"
     y="15.3"
     style="font-size:8.2397px;font-family:RelativePro-Book;fill:#ffffff"
     id="tspan227">are</tspan><tspan
     x="58.360001"
     y="15.3"
     style="font-size:8.2397px;font-family:RelativePro-Book;fill:#ffffff"
     id="tspan229"> </tspan><tspan
     x="60.110001"
     y="15.3"
     style="font-size:8.2397px;font-family:RelativePro-Book;fill:#ffffff"
     id="tspan231">integrated</tspan><tspan
     x="100.67"
     y="15.3"
     style="font-size:8.2397px;font-family:RelativePro-Book;fill:#ffffff"
     id="tspan233"> </tspan><tspan
     x="102.41"
     y="15.3"
     style="font-size:8.2397px;font-family:RelativePro-Book;fill:#ffffff"
     id="tspan235">in</tspan><tspan
     x="109.05"
     y="15.3"
     style="font-size:8.2397px;font-family:RelativePro-Book;fill:#ffffff"
     id="tspan237"> </tspan><tspan
     x="110.8"
     y="15.3"
     style="font-size:8.2397px;font-family:RelativePro-Book;fill:#ffffff"
     id="tspan239">vector</tspan><tspan
     x="135.98"
     y="15.3"
     style="font-size:8.2397px;font-family:RelativePro-Book;fill:#ffffff"
     id="tspan241"> </tspan><tspan
     x="137.73"
     y="15.3"
     style="font-size:8.2397px;font-family:RelativePro-Book;fill:#ffffff"
     id="tspan243">elements.</tspan><tspan
     x="175.05"
     y="15.3"
     style="font-size:8.2397px;font-family:RelativePro-Book;fill:#ffffff"
     id="tspan245"> </tspan><tspan
     x="176.8"
     y="15.3"
     style="font-size:8.2397px;font-family:RelativePro-Book;fill:#ffffff"
     id="tspan247">Digital</tspan><tspan
     x="200.75999"
     y="15.3"
     style="font-size:8.2397px;font-family:RelativePro-Book;fill:#ffffff"
     id="tspan249"> </tspan><tspan
     x="202.50999"
     y="15.3"
     style="font-size:8.2397px;font-family:RelativePro-Book;fill:#ffffff"
     id="tspan251">color</tspan><tspan
     x="222.39999"
     y="15.3"
     style="font-size:8.2397px;font-family:RelativePro-Book;fill:#ffffff"
     id="tspan253"> </tspan><tspan
     x="224.14999"
     y="15.3"
     style="font-size:8.2397px;font-family:RelativePro-Book;fill:#ffffff"
     id="tspan255">separation,</tspan><tspan
     x="267.23999"
     y="15.3"
     style="font-size:8.2397px;font-family:RelativePro-Book;fill:#ffffff"
     id="tspan257"> </tspan><tspan
     x="268.98999"
     y="15.3"
     style="font-size:8.2397px;font-family:RelativePro-Book;fill:#ffffff"
     id="tspan259">overprinting</tspan><tspan
     x="315.85999"
     y="15.3"
     style="font-size:8.2397px;font-family:RelativePro-Book;fill:#ffffff"
     id="tspan261"> </tspan><tspan
     x="317.60999"
     y="15.3"
     style="font-size:8.2397px;font-family:RelativePro-Book;fill:#ffffff"
     id="tspan263">and</tspan><tspan
     x="331.53"
     y="15.3"
     style="font-size:8.2397px;font-family:RelativePro-Book;fill:#ffffff"
     id="tspan265"> </tspan><tspan
     x="333.28"
     y="15.3"
     style="font-size:8.2397px;font-family:RelativePro-Book;fill:#ffffff"
     id="tspan267">trappings</tspan><tspan
     x="369.69"
     y="15.3"
     style="font-size:8.2397px;font-family:RelativePro-Book;fill:#ffffff"
     id="tspan269"> </tspan><tspan
     x="371.44"
     y="15.3"
     style="font-size:8.2397px;font-family:RelativePro-Book;fill:#ffffff"
     id="tspan271">have</tspan><tspan
     x="389.41"
     y="15.3"
     style="font-size:8.2397px;font-family:RelativePro-Book;fill:#ffffff"
     id="tspan273"> </tspan><tspan
     x="391.16"
     y="15.3"
     style="font-size:8.2397px;font-family:RelativePro-Book;fill:#ffffff"
     id="tspan275">to</tspan><tspan
     x="399.53"
     y="15.3"
     style="font-size:8.2397px;font-family:RelativePro-Book;fill:#ffffff"
     id="tspan277"> </tspan><tspan
     x="401.26999"
     y="15.3"
     style="font-size:8.2397px;font-family:RelativePro-Book;fill:#ffffff"
     id="tspan279">be</tspan><tspan
     x="410.94"
     y="15.3"
     style="font-size:8.2397px;font-family:RelativePro-Book;fill:#ffffff"
     id="tspan281"> </tspan><tspan
     x="412.69"
     y="15.3"
     style="font-size:8.2397px;font-family:RelativePro-Book;fill:#ffffff"
     id="tspan283">handled</tspan><tspan
     x="442.98999"
     y="15.3"
     style="font-size:8.2397px;font-family:RelativePro-Book;fill:#ffffff"
     id="tspan285"> </tspan><tspan
     x="444.73999"
     y="15.3"
     style="font-size:8.2397px;font-family:RelativePro-Book;fill:#ffffff"
     id="tspan287">by</tspan><tspan
     x="453.5"
     y="15.3"
     style="font-size:8.2397px;font-family:RelativePro-Book;fill:#ffffff"
     id="tspan289"> </tspan><tspan
     x="455.25"
     y="15.3"
     style="font-size:8.2397px;font-family:RelativePro-Book;fill:#ffffff"
     id="tspan291">the</tspan><tspan
     x="468.25"
     y="15.3"
     style="font-size:8.2397px;font-family:RelativePro-Book;fill:#ffffff"
     id="tspan293"> </tspan><tspan
     x="470"
     y="15.3"
     style="font-size:8.2397px;font-family:RelativePro-Book;fill:#ffffff"
     id="tspan295">repro </tspan><tspan
     x="0"
     y="24.719999"
     style="font-size:8.2397px;font-family:RelativePro-Book;fill:#ffffff"
     id="tspan297">house following our color recommendations. This digital proof sent along with this file (Epson 7900) is the reference color target. </tspan><tspan
     x="0"
     y="40.02"
     style="font-size:8.2397px;font-family:RelativePro-Book;fill:#ffffff"
     id="tspan299">Client</tspan><tspan
     x="22.719999"
     y="40.02"
     style="font-size:8.2397px;font-family:RelativePro-Book;fill:#ffffff"
     id="tspan301"> </tspan><tspan
     x="24.620001"
     y="40.02"
     style="font-size:8.2397px;font-family:RelativePro-Book;fill:#ffffff"
     id="tspan303">is</tspan><tspan
     x="30.68"
     y="40.02"
     style="font-size:8.2397px;font-family:RelativePro-Book;fill:#ffffff"
     id="tspan305"> </tspan><tspan
     x="32.59"
     y="40.02"
     style="font-size:8.2397px;font-family:RelativePro-Book;fill:#ffffff"
     id="tspan307">responsible</tspan><tspan
     x="77.080002"
     y="40.02"
     style="font-size:8.2397px;font-family:RelativePro-Book;fill:#ffffff"
     id="tspan309"> </tspan><tspan
     x="78.980003"
     y="40.02"
     style="font-size:8.2397px;font-family:RelativePro-Book;fill:#ffffff"
     id="tspan311">for</tspan><tspan
     x="90.389999"
     y="40.02"
     style="font-size:8.2397px;font-family:RelativePro-Book;fill:#ffffff"
     id="tspan313"> </tspan><tspan
     x="92.290001"
     y="40.02"
     style="font-size:8.2397px;font-family:RelativePro-Book;fill:#ffffff"
     id="tspan315">proofreading</tspan><tspan
     x="142.41"
     y="40.02"
     style="font-size:8.2397px;font-family:RelativePro-Book;fill:#ffffff"
     id="tspan317"> </tspan><tspan
     x="144.31"
     y="40.02"
     style="font-size:8.2397px;font-family:RelativePro-Book;fill:#ffffff"
     id="tspan319">all</tspan><tspan
     x="152.64"
     y="40.02"
     style="font-size:8.2397px;font-family:RelativePro-Book;fill:#ffffff"
     id="tspan321"> </tspan><tspan
     x="154.53999"
     y="40.02"
     style="font-size:8.2397px;font-family:RelativePro-Book;fill:#ffffff"
     id="tspan323">copy</tspan><tspan
     x="172.88"
     y="40.02"
     style="font-size:8.2397px;font-family:RelativePro-Book;fill:#ffffff"
     id="tspan325"> </tspan><tspan
     x="174.78"
     y="40.02"
     style="font-size:8.2397px;font-family:RelativePro-Book;fill:#ffffff"
     id="tspan327">before</tspan><tspan
     x="200.69"
     y="40.02"
     style="font-size:8.2397px;font-family:RelativePro-Book;fill:#ffffff"
     id="tspan329"> </tspan><tspan
     x="202.59"
     y="40.02"
     style="font-size:8.2397px;font-family:RelativePro-Book;fill:#ffffff"
     id="tspan331">artwork’s</tspan><tspan
     x="238.49001"
     y="40.02"
     style="font-size:8.2397px;font-family:RelativePro-Book;fill:#ffffff"
     id="tspan333"> </tspan><tspan
     x="240.39"
     y="40.02"
     style="font-size:8.2397px;font-family:RelativePro-Book;fill:#ffffff"
     id="tspan335">delivery.</tspan><tspan
     x="272.22"
     y="40.02"
     style="font-size:8.2397px;font-family:RelativePro-Book;fill:#ffffff"
     id="tspan337"> </tspan><tspan
     x="274.12"
     y="40.02"
     style="font-size:8.2397px;font-family:RelativePro-Bold;fill:#ffffff"
     id="tspan339">FutureBrand</tspan><tspan
     x="322.25"
     y="40.02"
     style="font-size:8.2397px;font-family:RelativePro-Book;fill:#ffffff"
     id="tspan341"> </tspan><tspan
     x="324.14999"
     y="40.02"
     style="font-size:8.2397px;font-family:RelativePro-Book;fill:#ffffff"
     id="tspan343">won’t</tspan><tspan
     x="345.19"
     y="40.02"
     style="font-size:8.2397px;font-family:RelativePro-Book;fill:#ffffff"
     id="tspan345"> </tspan><tspan
     x="347.10001"
     y="40.02"
     style="font-size:8.2397px;font-family:RelativePro-Book;fill:#ffffff"
     id="tspan347">accept</tspan><tspan
     x="373.79999"
     y="40.02"
     style="font-size:8.2397px;font-family:RelativePro-Book;fill:#ffffff"
     id="tspan349"> </tspan><tspan
     x="375.70001"
     y="40.02"
     style="font-size:8.2397px;font-family:RelativePro-Book;fill:#ffffff"
     id="tspan351">any</tspan><tspan
     x="388.72"
     y="40.02"
     style="font-size:8.2397px;font-family:RelativePro-Book;fill:#ffffff"
     id="tspan353"> </tspan><tspan
     x="390.62"
     y="40.02"
     style="font-size:8.2397px;font-family:RelativePro-Book;fill:#ffffff"
     id="tspan355">responsability</tspan><tspan
     x="443.98001"
     y="40.02"
     style="font-size:8.2397px;font-family:RelativePro-Book;fill:#ffffff"
     id="tspan357"> </tspan><tspan
     x="445.89001"
     y="40.02"
     style="font-size:8.2397px;font-family:RelativePro-Book;fill:#ffffff"
     id="tspan359">for</tspan><tspan
     x="457.29999"
     y="40.02"
     style="font-size:8.2397px;font-family:RelativePro-Book;fill:#ffffff"
     id="tspan361"> </tspan><tspan
     x="459.20001"
     y="40.02"
     style="font-size:8.2397px;font-family:RelativePro-Book;fill:#ffffff"
     id="tspan363">changes </tspan><tspan
     x="0"
     y="49.439999"
     style="font-size:8.2397px;font-family:RelativePro-Book;fill:#ffffff"
     id="tspan365">made to this artwork after delivery.</tspan></text>
		<path
   class="st15"
   d="m 25.69,468.65 c 0,-0.78 0.29,-1.39 0.87,-1.85 0.58,-0.45 1.31,-0.68 2.2,-0.68 0.89,0 1.62,0.23 2.2,0.68 0.58,0.45 0.87,1.07 0.87,1.85 0,0.78 -0.29,1.39 -0.87,1.85 -0.58,0.45 -1.31,0.68 -2.2,0.68 -0.88,0 -1.62,-0.23 -2.2,-0.68 -0.58,-0.46 -0.87,-1.08 -0.87,-1.85 m 8.3,0.48 c 0,-1.08 -0.34,-2.05 -1.02,-2.89 h 0.63 c 0.13,0 0.2,-0.07 0.2,-0.2 v -2.02 c 0,-0.13 -0.07,-0.2 -0.2,-0.2 H 19.95 c -0.14,0 -0.21,0.07 -0.21,0.2 v 2.02 c 0.01,0.13 0.08,0.2 0.21,0.2 h 4.57 c -0.67,0.84 -1,1.81 -1,2.89 0,1.37 0.47,2.47 1.41,3.31 0.94,0.84 2.22,1.26 3.83,1.26 1.61,0 2.88,-0.42 3.83,-1.26 0.93,-0.84 1.4,-1.95 1.4,-3.31 m -8.3,21.57 c 0,-0.78 0.29,-1.39 0.87,-1.85 0.58,-0.45 1.31,-0.68 2.2,-0.68 0.89,0 1.62,0.23 2.2,0.68 0.58,0.45 0.87,1.07 0.87,1.85 0,0.78 -0.29,1.39 -0.87,1.85 -0.58,0.45 -1.31,0.68 -2.2,0.68 -0.89,0 -1.62,-0.23 -2.2,-0.68 -0.58,-0.46 -0.87,-1.08 -0.87,-1.85 m 8.3,0.48 c 0,-1.08 -0.34,-2.05 -1.02,-2.89 h 0.63 c 0.13,0 0.2,-0.07 0.2,-0.2 v -2.02 c 0,-0.13 -0.07,-0.2 -0.2,-0.2 h -9.68 c -0.14,0 -0.21,0.07 -0.21,0.2 v 2.02 c 0.01,0.13 0.08,0.2 0.21,0.2 h 0.6 c -0.67,0.84 -1,1.81 -1,2.89 0,1.37 0.47,2.47 1.41,3.31 0.94,0.84 2.22,1.26 3.83,1.26 1.61,0 2.88,-0.42 3.83,-1.26 0.93,-0.85 1.4,-1.95 1.4,-3.31 m -0.17,84.2 v -2.13 c 0,-0.13 -0.07,-0.2 -0.2,-0.2 H 27.9 v -5.7 c -0.01,-0.13 -0.07,-0.2 -0.21,-0.2 h -1.92 c -0.14,0 -0.21,0.07 -0.21,0.2 v 5.7 H 22.1 v -5.94 c -0.01,-0.14 -0.07,-0.21 -0.21,-0.21 h -1.92 c -0.14,0.01 -0.21,0.08 -0.21,0.21 v 8.26 c 0.01,0.14 0.08,0.21 0.21,0.21 h 13.65 c 0.14,0.01 0.2,-0.06 0.2,-0.2 m -7.93,-20.61 v -1.72 h 4.73 c 1.08,0 1.92,-0.31 2.5,-0.93 0.58,-0.62 0.87,-1.43 0.87,-2.44 0.01,-0.98 -0.1,-1.75 -0.31,-2.31 -0.04,-0.1 -0.15,-0.16 -0.34,-0.16 h -1.65 c -0.12,0 -0.18,0.05 -0.18,0.14 0,0.05 0.01,0.1 0.02,0.14 0.2,0.54 0.29,1.13 0.29,1.77 0,0.49 -0.13,0.84 -0.4,1.06 -0.27,0.22 -0.68,0.32 -1.24,0.32 h -4.29 v -3.03 c 0,-0.14 -0.07,-0.21 -0.2,-0.21 h -1.77 c -0.13,0.01 -0.2,0.07 -0.2,0.21 v 3.03 h -2.89 c -0.13,0 -0.2,0.07 -0.2,0.2 v 2.01 c 0,0.14 0.07,0.21 0.2,0.21 h 2.89 v 1.72 c 0,0.13 0.07,0.2 0.2,0.2 h 1.77 c 0.14,-0.02 0.2,-0.08 0.2,-0.21 M 22.1,512.84 v -3.08 c 0,-0.48 0.13,-0.87 0.39,-1.17 0.26,-0.3 0.65,-0.46 1.17,-0.46 0.52,0 0.92,0.15 1.19,0.45 0.27,0.3 0.41,0.69 0.41,1.18 v 3.08 z m 5.5,0 v -3.29 c 0,-0.57 0.18,-1.05 0.53,-1.42 0.36,-0.37 0.83,-0.55 1.42,-0.55 0.61,0 1.09,0.18 1.43,0.54 0.34,0.36 0.51,0.84 0.51,1.43 v 3.29 z m 6.22,2.32 v -5.86 c 0,-1.3 -0.4,-2.34 -1.19,-3.12 -0.79,-0.78 -1.79,-1.17 -2.99,-1.17 -1.66,0 -2.79,0.68 -3.4,2.03 -0.75,-0.95 -1.67,-1.43 -2.77,-1.43 -1.12,0 -2.02,0.4 -2.7,1.2 -0.67,0.8 -1.01,1.79 -1.01,2.98 v 5.38 c 0.01,0.14 0.08,0.21 0.21,0.21 h 13.65 c 0.14,-0.02 0.2,-0.09 0.2,-0.22 m 0,-11.81 v -2 c 0,-0.14 -0.07,-0.21 -0.2,-0.21 h -5.21 c -0.99,0 -1.69,-0.19 -2.09,-0.57 -0.41,-0.38 -0.61,-0.92 -0.61,-1.61 0,-0.61 0.19,-1.3 0.56,-2.07 0.03,-0.07 0.04,-0.11 0.04,-0.14 0.01,-0.11 -0.06,-0.17 -0.21,-0.17 h -1.87 c -0.18,0 -0.3,0.08 -0.36,0.25 -0.22,0.61 -0.32,1.23 -0.32,1.84 0.01,0.98 0.32,1.8 0.95,2.47 h -0.55 c -0.13,0.01 -0.2,0.08 -0.2,0.21 v 2 c 0,0.14 0.07,0.21 0.2,0.21 h 9.68 c 0.13,0 0.19,-0.07 0.19,-0.21 m -0.74,41.42 c 0.61,-0.62 0.91,-1.48 0.91,-2.58 0.01,-1.11 -0.37,-2.12 -1.12,-3.03 h 0.73 c 0.13,-0.01 0.2,-0.08 0.2,-0.21 v -2.01 c 0,-0.13 -0.07,-0.2 -0.2,-0.2 h -9.68 c -0.13,0 -0.2,0.07 -0.2,0.2 v 2.01 c 0,0.14 0.07,0.21 0.2,0.21 h 4.56 c 1.12,0 1.96,0.23 2.52,0.68 0.56,0.45 0.83,1.03 0.83,1.72 0,1.15 -0.7,1.72 -2.09,1.72 h -5.82 c -0.13,0.01 -0.2,0.07 -0.2,0.21 v 2.01 c 0,0.13 0.07,0.2 0.2,0.2 h 6.68 c 1.05,0 1.88,-0.31 2.48,-0.93 m 0.74,-10.02 v -2 c 0,-0.14 -0.07,-0.21 -0.2,-0.21 h -5.21 c -0.99,0 -1.69,-0.19 -2.09,-0.57 -0.41,-0.38 -0.61,-0.92 -0.61,-1.61 0,-0.61 0.19,-1.3 0.56,-2.07 0.03,-0.07 0.04,-0.11 0.04,-0.14 0.01,-0.11 -0.06,-0.17 -0.21,-0.17 h -1.87 c -0.18,0 -0.3,0.08 -0.36,0.25 -0.22,0.61 -0.32,1.23 -0.32,1.84 0.01,0.98 0.32,1.8 0.95,2.47 h -0.55 c -0.13,0.01 -0.2,0.08 -0.2,0.21 v 2 c 0,0.14 0.07,0.21 0.2,0.21 h 9.68 c 0.13,0 0.19,-0.07 0.19,-0.21 m -0.74,29.79 c 0.61,-0.62 0.91,-1.48 0.91,-2.58 0.01,-1.11 -0.37,-2.12 -1.12,-3.03 h 0.73 c 0.13,-0.01 0.2,-0.08 0.2,-0.21 v -2.01 c 0,-0.13 -0.07,-0.2 -0.2,-0.2 h -9.68 c -0.13,0 -0.2,0.07 -0.2,0.2 v 2.01 c 0,0.14 0.07,0.21 0.2,0.21 h 4.56 c 1.12,0 1.96,0.23 2.52,0.68 0.56,0.45 0.83,1.03 0.83,1.72 0,1.15 -0.7,1.72 -2.09,1.72 h -5.82 c -0.13,0.01 -0.2,0.07 -0.2,0.21 v 2.01 c 0,0.13 0.07,0.2 0.2,0.2 h 6.68 c 1.05,0 1.88,-0.31 2.48,-0.93 m 0.74,-80.62 v -2 c 0,-0.14 -0.07,-0.21 -0.2,-0.21 h -4.56 c -1.12,0 -1.97,-0.23 -2.52,-0.69 -0.56,-0.46 -0.83,-1.03 -0.83,-1.72 0,-1.15 0.7,-1.72 2.09,-1.72 h 5.83 c 0.13,0 0.2,-0.07 0.2,-0.2 v -2.01 c 0,-0.14 -0.07,-0.21 -0.2,-0.21 h -6.68 c -1.05,0 -1.87,0.31 -2.48,0.94 -0.61,0.62 -0.92,1.48 -0.92,2.58 0,1.11 0.37,2.12 1.12,3.03 h -0.72 c -0.13,0.01 -0.2,0.08 -0.2,0.21 v 2 c 0,0.14 0.07,0.21 0.2,0.21 h 9.68 c 0.13,0 0.19,-0.07 0.19,-0.21 m -7.64,39.68 c -0.33,-0.47 -0.49,-0.99 -0.49,-1.56 0,-1.36 0.61,-2.24 1.83,-2.64 v 5.2 c -0.57,-0.2 -1.01,-0.53 -1.34,-1 m 6.35,2.13 c 0.97,-0.98 1.46,-2.21 1.46,-3.68 0.01,-2.25 -0.92,-3.82 -2.77,-4.71 -0.07,-0.03 -0.13,-0.06 -0.2,-0.09 v 0 c -0.06,-0.02 -0.09,0 -0.12,0.03 -0.02,0.02 -0.02,0.07 -0.02,0.11 v 2.21 c 0,0.18 0.08,0.23 0.18,0.34 0.51,0.5 0.76,1.2 0.76,2.1 0,0.72 -0.21,1.31 -0.63,1.78 -0.42,0.47 -0.98,0.76 -1.67,0.86 v -7.64 c -0.01,-0.14 -0.07,-0.21 -0.21,-0.21 h -0.34 c -1.52,0 -2.81,0.47 -3.87,1.41 -1.06,0.94 -1.59,2.2 -1.59,3.8 0,1.44 0.49,2.67 1.48,3.67 0.99,1 2.24,1.5 3.76,1.5 1.55,0 2.81,-0.49 3.78,-1.48"
   id="path369" />
		<text
   transform="translate(193.734,554.8521)"
   class="st15"
   style="font-size:9.4168px;font-family:RelativePro-Book"
   id="text371">Software </text>
		<text
   transform="translate(236.4289,554.8521)"
   class="st15"
   style="font-size:9.4168px;font-family:RelativePro-Book"
   id="text373">: </text>
		<text
   transform="translate(240.9489,554.8521)"
   class="st15"
   style="font-size:9.4168px;font-family:RelativePro-Book"
   id="text375">Illustrator</text>
		
			<text
   transform="matrix(0.583,0,0,0.583,281.4392,551.7164)"
   class="st15"
   style="font-size:9.4168px;font-family:RelativePro-Book"
   id="text377">® </text>
		<text
   transform="translate(286.7643,554.8521)"
   class="st15"
   style="font-size:9.4168px;font-family:RelativePro-Book"
   id="text379">CC 2020</text>
		<text
   transform="translate(647.5244,495.6271)"
   class="st15"
   style="font-size:9.4168px;font-family:RelativePro-Book"
   id="text381">Font list : </text>
		<line
   class="st14"
   x1="521.90997"
   y1="592.84003"
   x2="521.90997"
   y2="672.57001"
   id="line383" />
		<text
   transform="translate(55.9668,494.6486)"
   class="st15"
   style="font-size:9.4168px;font-family:RelativePro-Book"
   id="text385">Job number : SN0002</text>
		<text
   transform="translate(55.9673,476.2366)"
   class="st15"
   style="font-size:9.4168px;font-family:RelativePro-Book"
   id="text387">Client : SANOFI</text>
		<g
   id="g391">
			<path
   class="st15"
   d="m 785.25,447.26 v 145.4 H 0.18 v -145.4 h 785.07 m 0.18,-0.18 H 0 v 145.76 h 785.43 z"
   id="path389" />
		</g>
	</g>
	<rect
   x="388.39001"
   y="510.88"
   class="st16"
   width="4.3099999"
   height="12.92"
   id="rect395" />
	<rect
   x="392.70001"
   y="510.88"
   class="st17"
   width="4.3099999"
   height="12.92"
   id="rect397" />
	<rect
   x="397.01001"
   y="510.88"
   class="st18"
   width="4.3099999"
   height="12.92"
   id="rect399" />
	
		<text
   transform="translate(408.3359,520.7264)"
   style="font-size:9.417px;font-family:RelativePro-Book;display:inline;fill:#1a1a18"
   id="text401">RGB</text>
</g>
</svg>
