<?xml version="1.0" encoding="UTF-8" standalone="no"?>
<svg
   height="67.991203"
   width="588.36462"
   id="svg4600"
   version="1.1"
   viewBox="0 0 58.842346 6.7998"
   sodipodi:docname="regeneron.svg"
   inkscape:version="1.1.1 (c3084ef, 2021-09-22)"
   xmlns:inkscape="http://www.inkscape.org/namespaces/inkscape"
   xmlns:sodipodi="http://sodipodi.sourceforge.net/DTD/sodipodi-0.dtd"
   xmlns="http://www.w3.org/2000/svg"
   xmlns:svg="http://www.w3.org/2000/svg">
  <defs
     id="defs24" />
  <sodipodi:namedview
     id="namedview22"
     pagecolor="#ffffff"
     bordercolor="#666666"
     borderopacity="1.0"
     inkscape:pageshadow="2"
     inkscape:pageopacity="0.0"
     inkscape:pagecheckerboard="0"
     showgrid="false"
     viewbox-x="-4.52649"
     viewbox-y="3.00005"
     viewbox-height="1.60709"
     inkscape:zoom="0.98833333"
     inkscape:cx="535.75042"
     inkscape:cy="194.77234"
     inkscape:window-width="2147"
     inkscape:window-height="1013"
     inkscape:window-x="290"
     inkscape:window-y="184"
     inkscape:window-maximized="0"
     inkscape:current-layer="svg4600"
     fit-margin-top="0"
     fit-margin-left="0"
     fit-margin-right="0"
     fit-margin-bottom="0"
     scale-x="0.10001"
     showborder="true"
     borderlayer="false" />
  <g
     transform="translate(149.48571,-262.59282)"
     id="layer1">
    <g
       transform="translate(0.1323,-0.13229)"
       id="g4681">
      <path
         id="XMLID_83_"
         class="st1"
         d="m -148.24226,262.88386 h 3.09562 c 1.16417,-0.0265 1.93146,0.4498 1.93146,1.69334 0,0.87312 -0.60854,1.61396 -1.48166,1.74625 v 0.0265 c 0.52916,0.15875 0.66145,0.635 0.66145,1.1377 0,0.29105 -0.0529,0.71438 -0.0529,1.13771 0,0.29104 0.0265,0.55563 0.0794,0.74084 h -1.40229 c -0.0265,-0.15875 -0.0529,-0.29105 -0.0529,-0.42334 0,-0.42333 0.0794,-0.87312 0.0794,-1.32291 0,-0.635 -0.37042,-0.79375 -0.92604,-0.79375 h -1.34938 l -0.52916,2.54 h -1.42875 z m 0.82021,2.93688 h 1.32291 c 0.74084,0 1.48167,-0.29104 1.48167,-1.03188 0,-0.68791 -0.50271,-0.79375 -1.05833,-0.79375 h -1.34938 z"
         fill="#005c9e"
         stroke-width="0.26458" />
      <path
         id="XMLID_82_"
         class="st1"
         transform="matrix(0.26458,0,0,0.26458,-162.52976,256.61324)"
         fill="#005c9e"
         d="m 73.6,48.2 5.2,-24.5 h 18.7 l -1,4.5 H 83.2 l -1.1,5.3 h 12.3 l -0.9,4.2 H 81.2 l -1.2,6 h 13.5 l -1,4.5 z" />
      <path
         id="XMLID_80_"
         class="st1"
         d="m -132.10268,268.7047 c -0.44979,0.58208 -1.05833,0.82021 -1.64041,0.82021 -1.82563,0 -2.88396,-1.03188 -2.88396,-2.8575 0,-2.09021 1.34937,-3.91584 3.54541,-3.91584 1.50813,0 2.75167,0.71438 2.75167,2.30188 h -1.42875 c -0.0265,-0.79375 -0.52917,-1.11125 -1.32292,-1.11125 -1.4552,0 -2.11666,1.48166 -2.11666,2.72521 0,0.89958 0.42333,1.66687 1.48166,1.66687 1.0848,0 1.56105,-0.58208 1.79917,-1.40229 h -1.50812 l 0.23812,-1.05833 h 2.75167 l -0.74084,3.4925 h -0.92604 z"
         fill="#005c9e"
         stroke-width="0.26458" />
      <path
         id="XMLID_79_"
         class="st1"
         transform="matrix(0.26458,0,0,0.26458,-162.52976,256.61324)"
         fill="#005c9e"
         d="m 122.6,48.2 5.1,-24.5 h 18.7 l -0.9,4.5 h -13.3 l -1.1,5.3 h 12.3 l -0.9,4.2 h -12.3 l -1.3,6 h 13.5 l -0.9,4.5 z" />
      <path
         id="XMLID_77_"
         class="st1"
         transform="matrix(0.26458,0,0,0.26458,-162.52976,256.61324)"
         fill="#005c9e"
         d="m 145.4,48.2 5.2,-24.5 h 5.6 l 6.6,17.4 h 0.1 l 3.5,-17.4 h 5 l -5.2,24.5 h -5.4 L 154.1,31 H 154 l -3.5,17.2 z" />
      <path
         id="XMLID_73_"
         class="st1"
         transform="matrix(0.26458,0,0,0.26458,-162.52976,256.61324)"
         fill="#005c9e"
         d="M 170.9,48.2 176,23.7 h 18.7 l -0.9,4.5 h -13.3 l -1.1,5.3 h 12.3 l -0.9,4.2 h -12.3 l -1.3,6 h 13.6 l -1,4.5 z" />
      <path
         id="XMLID_65_"
         class="st1"
         d="m -109.90414,262.88386 h 3.09563 c 1.16417,-0.0265 1.93146,0.4498 1.93146,1.69334 0,0.87312 -0.60854,1.61396 -1.48167,1.74625 v 0.0265 c 0.52917,0.15875 0.66146,0.635 0.66146,1.1377 0,0.29105 -0.0529,0.71438 -0.0529,1.13771 0,0.29104 0.0265,0.55563 0.0794,0.74084 h -1.40229 c -0.0265,-0.15875 -0.0529,-0.29105 -0.0529,-0.42334 0,-0.42333 0.0794,-0.87312 0.0794,-1.32291 0,-0.635 -0.37041,-0.79375 -0.92604,-0.79375 h -1.34937 l -0.52917,2.54 h -1.42875 z m 0.82021,2.93688 h 1.32292 c 0.76729,0 1.48167,-0.29104 1.48167,-1.03188 0,-0.68791 -0.50271,-0.79375 -1.05834,-0.79375 h -1.34937 z"
         fill="#005c9e"
         stroke-width="0.26458" />
      <path
         id="XMLID_55_"
         class="st1"
         d="m -100.77601,262.72511 c 1.74625,0 2.88396,0.9525 2.88396,2.77813 0,2.14312 -1.27,4.02167 -3.54542,4.02167 -1.82562,0 -2.88396,-1.03188 -2.88396,-2.8575 0,-2.11667 1.34938,-3.9423 3.54542,-3.9423 m -0.66146,5.60917 c 1.40229,0 2.0902,-1.48167 2.0902,-2.72521 0,-0.89958 -0.39687,-1.69333 -1.4552,-1.69333 -1.45521,0 -2.11667,1.48167 -2.11667,2.72521 0.0265,0.89958 0.4498,1.69333 1.48167,1.69333"
         fill="#005c9e"
         stroke-width="0.26458" />
      <path
         id="XMLID_46_"
         class="st1"
         transform="matrix(0.26458,0,0,0.26458,-162.52976,256.61324)"
         fill="#005c9e"
         d="m 250.4,23.7 h 5.6 l 6.7,17.4 3.5,-17.4 h 5 L 266,48.2 h -5.4 L 253.9,31 h -0.1 l -3.5,17.2 h -5 z" />
    </g>
  </g>
  <style
     type="text/css"
     id="style4602">.st1{fill:#005c9e}</style>
</svg>
